{"title":"Real.Steel.2011.720p.BRRip.x264.Feel-Free","uid":6935954,"size":2799095625,"categoryP":"video","categoryS":"hd___movies","magnet":"?xt=urn:btih:b0da953fbdf3b877ec6fdc48f55f2241719d42d0&amp;dn=Real.Steel.2011.720p.BRRip.x264.Feel-Free&amp;tr=udp%3A%2F%2Ftracker.openbittorrent.com%3A80&amp;tr=udp%3A%2F%2Fopen.demonii.com%3A1337&amp;tr=udp%3A%2F%2Ftracker.coppersurfer.tk%3A6969&amp;tr=udp%3A%2F%2Fexodus.desync.com%3A6969","seeders":0,"leechers":1,"uploader":"rcbcsk","files":-1,"time":1325826646,"description":"Genre:Action | Drama | Sci-Fi\nLanguage:English\nIMDb:http://www.imdb.com/title/tt0433035/\nSource:1080p BluRay x264-HDChina Thanks!\n\nFormat : MPEG-4\nFormat profile : Base Media\nCodec ID : isom\nFile size : 2.60 GiB\nDuration : 2h 6mn\nOverall bit rate : 2 936 Kbps\n\nVideo\nID : 1\nFormat : AVC\nFormat/Info : Advanced Video Codec\nFormat profile : &lt;a class=&quot;__cf_email__&quot; href=&quot;/cdn-cgi/l/email-protection&quot; data-cfemail=&quot;5810313f3018146d7669&quot;&gt;[email&amp;#160;protected]&lt;/a&gt;&lt;script cf-hash='f9e31' type=&quot;text/javascript&quot;&gt;\n/* &lt;![CDATA[ */!function(){try{var t=&quot;currentScript&quot;in document?document.currentScript:function(){for(var t=document.getElementsByTagName(&quot;script&quot;),e=t.length;e--;)if(t[e].getAttribute(&quot;cf-hash&quot;))return t[e]}();if(t&amp;&amp;t.previousSibling){var e,r,n,i,c=t.previousSibling,a=c.getAttribute(&quot;data-cfemail&quot;);if(a){for(e=&quot;&quot;,r=parseInt(a.substr(0,2),16),n=2;a.length-n;n+=2)i=parseInt(a.substr(n,2),16)^r,e+=String.fromCharCode(i);e=document.createTextNode(e),c.parentNode.replaceChild(e,c)}}}catch(u){}}();/* ]]&gt; */&lt;/script&gt;\nFormat settings, CABAC : Yes\nFormat settings, ReFrames : 2 frames\nCodec ID : avc1\nCodec ID/Info : Advanced Video Coding\nDuration : 2h 6mn\nBit rate mode : Variable\nBit rate : 2 500 Kbps\nMaximum bit rate : 13.5 Mbps\nWidth : 1 280 pixels\nHeight : 544 pixels\nDisplay aspect ratio : 2.35:1\nFrame rate mode : Constant\nFrame rate : 23.976 fps\nColor space : YUV\nChroma subsampling : 4:2:0\nBit depth : 8 bits\nScan type : Progressive\nBits/(Pixel*Frame) : 0.150\nStream size : 2.20 GiB (85%)\nWriting library : x264\n\nAudio\nID : 2\nFormat : AAC\nFormat/Info : Advanced Audio Codec\nFormat version : Version 4\nFormat profile : LC\nFormat settings, SBR : No\nCodec ID : 40\nDuration : 2h 6mn\nBit rate mode : Variable\nBit rate : 445 Kbps\nMaximum bit rate : 535 Kbps\nChannel(s) : 6 channels\nChannel positions : Front: L C R, Side: L R, LFE\nSampling rate : 48.0 KHz\nStream size : 403 MiB (15%)\n\n\nPlot:\nSet in the near future, where robot boxing is a top sport, a struggling promoter feels he's found a champion in a discarded robot. During his hopeful rise to the top, he discovers he has an 11-year-old son who wants to know his father\n\n","torrent":{"xt":"urn:btih:b0da953fbdf3b877ec6fdc48f55f2241719d42d0","amp;dn":"Real.Steel.2011.720p.BRRip.x264.Feel-Free","amp;tr":["udp%3A%2F%2Ftracker.openbittorrent.com%3A80","udp%3A%2F%2Fopen.demonii.com%3A1337","udp%3A%2F%2Ftracker.coppersurfer.tk%3A6969","udp%3A%2F%2Fexodus.desync.com%3A6969"],"infoHash":"b0da953fbdf3b877ec6fdc48f55f2241719d42d0","infoHashBuffer":{"type":"Buffer","data":[176,218,149,63,189,243,184,119,236,111,220,72,245,95,34,65,113,157,66,208]},"announce":[],"urlList":[]}}